<svg xmlns="http://www.w3.org/2000/svg" viewBox="0 0 3200 2000"><filter id="b"><feGaussianBlur stdDeviation="12" /></filter><path fill="#937a5d" d="M0 0h3200v2000H0z"/><g filter="url(#b)" transform="matrix(12.5 0 0 12.5 6.3 6.3)" fill-opacity=".5"><ellipse fill="#010300" rx="1" ry="1" transform="matrix(-68.5011 -.83694 .26552 -21.73199 154.6 67.5)"/><ellipse fill="#ecc095" rx="1" ry="1" transform="matrix(188.94902 5.78537 -.81087 26.4829 199 14.6)"/><ellipse fill="#6c5f4c" rx="1" ry="1" transform="matrix(8.4976 -32.60937 145.64973 37.95451 72.7 156.9)"/><ellipse fill="#c3976d" cx="234" cy="100" rx="53" ry="26"/><path fill="#050702" d="M12.5 70.3L1.3 69l2-8.9L51 67.4z"/><ellipse fill="#ae937a" cx="33" cy="28" rx="82" ry="32"/><path fill="#3e331c" d="M175 42l77 25-36 10z"/><path fill="#483d26" d="M158.3 101l-66-14 1.4-35.6 62.1-26z"/></g></svg>