<svg xmlns="http://www.w3.org/2000/svg" viewBox="0 0 5120 2880"><filter id="b"><feGaussianBlur stdDeviation="12" /></filter><path fill="#67657e" d="M0 0h5120v2880H0z"/><g filter="url(#b)" transform="matrix(20 0 0 20 10 10)" fill-opacity=".5"><path fill="#f8c9c0" d="M36.5-14.8L117.6 7l-32 119.8L4.3 105z"/><ellipse fill="#00092f" rx="1" ry="1" transform="rotate(6.9 -646 1977.2) scale(111.56201 55.79378)"/><ellipse fill="#dbe0f8" rx="1" ry="1" transform="matrix(-56.43569 25.48169 -6.26252 -13.86995 95.9 32)"/><path fill="#0a1931" d="M75 58h181v28H75z"/><ellipse fill="#2859b2" cx="206" rx="51" ry="51"/><ellipse fill="#f4c3b6" rx="1" ry="1" transform="matrix(-4.36766 14.55817 -67.1818 -20.1555 18.3 37)"/><ellipse fill="#965e53" rx="1" ry="1" transform="rotate(-23.2 259.8 16.5) scale(28.82813 170.0609)"/><ellipse fill="#76809b" rx="1" ry="1" transform="matrix(1.12722 -22.11098 49.98167 2.54808 136.8 110.8)"/></g></svg>