<svg xmlns="http://www.w3.org/2000/svg" viewBox="0 0 3200 2000"><filter id="c"><feGaussianBlur stdDeviation="55" /></filter><path fill="#8a6332" d="M0 0h3200v2000H0z"/><g filter='url(#c)' fill-opacity='.5'><path fill="#f6c07d" fill-opacity=".5" d="M1380.7 2190L2523 965l758.8 707.5-1142.3 1225z"/><ellipse fill="#202312" fill-opacity=".5" rx="1" ry="1" transform="matrix(46.54903 591.46155 -469.67888 36.96453 2753.5 287.5)"/><ellipse fill="#3b1f00" fill-opacity=".5" rx="1" ry="1" transform="matrix(216.33894 256.91075 -619.13017 521.35601 299 471)"/><path fill="#ffc15a" fill-opacity=".5" d="M2093.8 593.8l162.4-787.5H968.8z"/><path fill="#ffe59e" fill-opacity=".5" d="M2090.4 1810.4l411-952-271.6 1335.3H1225.6z"/><path fill="#462a0a" fill-opacity=".5" d="M-193.8 2068.8l550-1350 137.6 1475z"/><path fill="#ffc370" fill-opacity=".5" d="M2482.4 1070.8L1916.7 505l88.4-88.4 565.7 565.7z"/><ellipse fill="#b28149" fill-opacity=".5" rx="1" ry="1" transform="rotate(118.9 1042.4 1702.6) scale(485.61593 709.89082)"/></g></svg>