<svg xmlns="http://www.w3.org/2000/svg" viewBox="0 0 5120 2880"><filter id="b"><feGaussianBlur stdDeviation="12" /></filter><path fill="#718182" d="M0 0h5120v2880H0z"/><g filter="url(#b)" transform="matrix(20 0 0 20 10 10)" fill-opacity=".5"><ellipse rx="1" ry="1" transform="matrix(7.76959 -38.18875 249.88083 50.83883 133.1 136.5)"/><ellipse fill="#e3ffff" rx="1" ry="1" transform="rotate(118.1 80.2 70.4) scale(50.66049 221.20525)"/><ellipse cx="124" cy="143" rx="255" ry="24"/><ellipse fill="#938b61" rx="1" ry="1" transform="matrix(-67.7278 -7.6903 2.6417 -23.26517 126.2 100)"/><ellipse fill="#1e1000" rx="1" ry="1" transform="rotate(51.3 -94.4 81) scale(69.58007 35.12169)"/><ellipse fill="#8dbfe6" rx="1" ry="1" transform="matrix(98.79125 4.6443 -2.15855 45.91576 74.4 14.3)"/><ellipse fill="#53a2db" cx="243" rx="255" ry="12"/><ellipse fill="#535a52" rx="1" ry="1" transform="matrix(1.3297 -17.481 77.06915 5.86233 81 76.5)"/></g></svg>