<svg xmlns="http://www.w3.org/2000/svg" viewBox="0 0 5120 2880"><filter id="b"><feGaussianBlur stdDeviation="12" /></filter><path fill="#bd96c3" d="M0 0h5120v2880H0z"/><g filter="url(#b)" transform="matrix(20 0 0 20 10 10)" fill-opacity=".5"><ellipse fill="#fff" rx="1" ry="1" transform="matrix(1.91272 -30.99654 224.75899 13.86929 150.5 16)"/><ellipse fill="#81609e" rx="1" ry="1" transform="matrix(252.13026 38.14885 -7.99688 52.85233 81.2 108.3)"/><ellipse fill="#ffe2f3" cx="183" cy="10" rx="157" ry="29"/><ellipse fill="#77649a" rx="1" ry="1" transform="matrix(23.4886 104.77584 -36.08375 8.08924 26.6 134.6)"/><ellipse fill="#c288c5" rx="1" ry="1" transform="matrix(3.81469 37.27501 -85.24333 8.72371 126.7 76.1)"/><path fill="#ffb5e1" d="M-16 1l83 53 94-21z"/><ellipse fill="#ffb1e3" rx="1" ry="1" transform="rotate(-178.5 112.8 20) scale(43.25429 12.31585)"/><ellipse fill="#a97fb7" cx="211" cy="100" rx="177" ry="26"/></g></svg>