<svg xmlns="http://www.w3.org/2000/svg" viewBox="0 0 3200 2000"><filter id="b"><feGaussianBlur stdDeviation="12" /></filter><path fill="#bfc7d3" d="M0 0h3200v2000H0z"/><g filter="url(#b)" transform="matrix(12.5 0 0 12.5 6.3 6.3)" fill-opacity=".5"><ellipse fill="#7083a9" rx="1" ry="1" transform="matrix(-199.05644 38.13915 -8.81276 -45.9957 172.5 159)"/><ellipse fill="#ececec" rx="1" ry="1" transform="matrix(-16.35399 -78.29234 122.8081 -25.6526 38.8 40)"/><ellipse fill="#9da8bd" rx="1" ry="1" transform="matrix(-74.37202 -34.83496 4.6778 -9.98702 79.2 104)"/><ellipse fill="#fafaf7" cx="250" cy="77" rx="72" ry="15"/><ellipse fill="#8192b9" rx="1" ry="1" transform="matrix(7.37975 -18.27504 18.93736 7.6472 198.8 28)"/><path fill="#a4aec0" d="M155 36L63 15l105 67z"/><ellipse fill="#f5f6f3" rx="1" ry="1" transform="matrix(145.85842 74.31858 -6.59614 12.94566 19.5 18.6)"/><path fill="#f8f9f7" d="M105 3l115 81-48-58z"/></g></svg>